# Blender 4.0.2
# www.blender.org
mtllib align_logo_flat_scaled.mtl
o Curve.006
v -0.349587 54.572029 -0.146467
v -0.349083 53.386868 -0.228438
v -0.347373 51.751171 -0.498913
v -0.344294 49.766888 -0.994659
v -0.339559 47.536095 -1.752387
v -0.332990 45.160866 -2.809037
v -0.324308 42.743214 -4.201235
v -0.313304 40.385212 -5.965783
v -0.299721 38.188869 -8.139530
v -0.283444 36.256268 -10.759203
v -0.264092 34.689358 -13.861594
v -0.241503 33.590267 -17.483465
v -0.215469 33.061073 -21.661625
v -0.241503 32.531822 -17.483465
v -0.264092 31.432730 -13.861593
v -0.283443 29.865822 -10.759204
v -0.299720 27.933218 -8.139531
v -0.313303 25.736818 -5.965784
v -0.324307 23.378817 -4.201236
v -0.332989 20.961163 -2.809039
v -0.339558 18.585934 -1.752389
v -0.344292 16.355200 -0.994661
v -0.347371 14.370919 -0.498915
v -0.349081 12.735158 -0.228440
v -0.349584 11.550057 -0.146469
v -0.350087 12.735219 -0.064497
v -0.351798 14.370919 0.205978
v -0.354868 16.355200 0.701638
v -0.359602 18.585934 1.459366
v -0.366163 20.961163 2.515929
v -0.374883 23.378817 3.908078
v -0.385888 25.736818 5.672627
v -0.399423 27.933218 7.846337
v -0.415747 29.865822 10.466050
v -0.435107 31.432734 13.568524
v -0.457704 32.531822 17.190477
v -0.483711 33.061073 21.368771
v -0.457704 33.590267 17.190477
v -0.435107 34.689358 13.568523
v -0.415747 36.256268 10.466049
v -0.399424 38.188869 7.846337
v -0.385888 40.385212 5.672628
v -0.374884 42.743214 3.908079
v -0.366164 45.160866 2.515931
v -0.359604 47.536095 1.459367
v -0.354870 49.766888 0.701639
v -0.351800 51.751171 0.205980
v -0.350090 53.386868 -0.064495
v -0.475586 -6.988062 20.016745
v -0.478470 -7.278467 20.477905
v -0.482292 -7.641888 21.087717
v -0.486940 -8.075994 21.840006
v -0.492465 -8.578394 22.728575
v -0.498881 -9.146820 23.747280
v -0.505983 -9.778883 24.889954
v -0.513823 -10.472250 26.150394
v -0.522370 -11.224534 27.522429
v -0.531597 -12.033523 28.999947
v -0.541388 -12.896772 30.576780
v -0.551837 -13.811942 32.246677
v -0.562781 -14.776772 34.003525
v -0.564429 -14.919554 34.261238
v -0.568848 -15.314363 34.973621
v -0.575577 -15.910684 36.049828
v -0.583960 -16.658245 37.398911
v -0.593510 -17.506594 38.929829
v -0.603623 -18.405333 40.551685
v -0.613737 -19.304075 42.173553
v -0.623289 -20.152426 43.704472
v -0.631712 -20.899986 45.053505
v -0.638392 -21.496370 46.129665
v -0.642860 -21.891180 46.842091
v -0.644421 -22.033960 47.099819
v -0.602450 -34.182121 40.363926
v -0.599227 -33.895943 39.844139
v -0.590218 -33.102398 38.403511
v -0.576604 -31.899031 36.220261
v -0.559499 -30.383310 33.472321
v -0.539954 -28.652710 30.337872
v -0.519092 -26.804710 26.995016
v -0.498032 -24.936789 23.621759
v -0.477962 -23.146538 20.396328
v -0.459898 -21.531313 17.496639
v -0.444941 -20.188656 15.100936
v -0.434258 -19.216101 13.387259
v -0.428889 -18.711065 12.533715
v -0.419183 -17.607929 10.966506
v -0.409919 -16.412161 9.485722
v -0.401262 -15.127990 8.094175
v -0.393151 -13.759463 6.794665
v -0.385664 -12.310809 5.590014
v -0.378741 -10.786196 4.483019
v -0.372460 -9.189672 3.476504
v -0.366800 -7.525467 2.573217
v -0.361846 -5.797687 1.776070
v -0.357532 -4.010563 1.087770
v -0.353980 -2.168142 0.511182
v -0.351094 -0.274592 0.049150
v -0.350723 0.030159 -0.008080
v -0.350439 0.354895 -0.056079
v -0.350192 0.699924 -0.095758
v -0.349997 1.065552 -0.127815
v -0.349884 1.452207 -0.146936
v -0.349884 1.860196 -0.146936
v -0.349836 2.289827 -0.146975
v -0.349836 2.741466 -0.146975
v -0.349875 3.215421 -0.147023
v -0.349875 3.712120 -0.147022
v -0.349875 4.231809 -0.147022
v -0.349875 4.774916 -0.147022
v -0.351180 4.774916 0.060037
v -0.355742 4.774916 0.800175
v -0.362768 4.774916 1.918230
v -0.371461 4.774916 3.319752
v -0.381415 4.774916 4.910295
v -0.391898 4.774916 6.595228
v -0.402391 4.774916 8.280249
v -0.412296 4.774915 9.870752
v -0.421076 4.774915 11.272266
v -0.428063 4.774915 12.390369
v -0.432626 4.774915 13.130508
v -0.434306 4.774915 13.398195
v -0.434696 3.694586 13.455597
v -0.435694 2.595496 13.623637
v -0.437437 1.488744 13.896112
v -0.439705 0.385425 14.266686
v -0.442596 -0.703365 14.729198
v -0.446033 -1.766651 15.277424
v -0.449923 -2.793216 15.905055
v -0.454284 -3.772023 16.605947
v -0.459109 -4.692039 17.373774
v -0.464282 -5.542043 18.202366
v -0.469797 -6.311123 19.085405
v -0.224135 -6.988060 -20.310656
v -0.221298 -7.278465 -20.771780
v -0.217435 -7.641885 -21.381548
v -0.212787 -8.075992 -22.133835
v -0.207223 -8.578392 -23.022358
v -0.200894 -9.146818 -24.041073
v -0.193754 -9.778881 -25.183697
v -0.185865 -10.472248 -26.444178
v -0.177358 -11.224532 -27.816261
v -0.168130 -12.033521 -29.293779
v -0.158299 -12.896767 -30.870554
v -0.147903 -13.811939 -32.540421
v -0.136920 -14.776769 -34.297218
v -0.135318 -14.919550 -34.554890
v -0.130889 -15.314357 -35.267361
v -0.124158 -15.910678 -36.343567
v -0.115737 -16.658237 -37.692596
v -0.106226 -17.506590 -39.223568
v -0.096107 -18.405331 -40.845428
v -0.085986 -19.304073 -42.467373
v -0.076434 -20.152422 -43.998299
v -0.068051 -20.899982 -45.347374
v -0.061320 -21.496367 -46.423576
v -0.056851 -21.891176 -47.136009
v -0.055291 -22.033958 -47.393734
v -0.097291 -34.182117 -40.657570
v -0.100556 -33.895943 -40.137833
v -0.109520 -33.102402 -38.697243
v -0.123091 -31.899029 -36.513954
v -0.140234 -30.383308 -33.766060
v -0.159782 -28.652708 -30.631617
v -0.180643 -26.804708 -27.288761
v -0.201702 -24.936783 -23.915508
v -0.221773 -23.146536 -20.690069
v -0.239837 -21.531313 -17.790382
v -0.254793 -20.188654 -15.394679
v -0.265476 -19.216101 -13.681000
v -0.270798 -18.711065 -12.827493
v -0.280553 -17.607929 -11.260245
v -0.289816 -16.412161 -9.779462
v -0.298474 -15.127992 -8.387916
v -0.306584 -13.759463 -7.088406
v -0.314072 -12.310809 -5.883756
v -0.320994 -10.786196 -4.776759
v -0.327276 -9.189672 -3.770244
v -0.332936 -7.525467 -2.866957
v -0.337890 -5.797687 -2.069809
v -0.342157 -4.010563 -1.381548
v -0.345757 -2.168142 -0.804922
v -0.348643 -0.274592 -0.342889
v -0.349015 0.030159 -0.285659
v -0.349298 0.354895 -0.237660
v -0.349583 0.699924 -0.198028
v -0.349731 1.065552 -0.166010
v -0.348569 4.774916 -0.354082
v -0.343921 4.774916 -1.094211
v -0.336981 4.774916 -2.212275
v -0.328241 4.774915 -3.613836
v -0.318344 4.774916 -5.204255
v -0.307813 4.774916 -6.889226
v -0.297320 4.774916 -8.574244
v -0.287376 4.774916 -10.164701
v -0.278682 4.774916 -11.566223
v -0.271656 4.774916 -12.684278
v -0.267095 4.774916 -13.424415
v -0.265413 4.774916 -13.692107
v -0.265023 3.694588 -13.749508
v -0.264026 2.595498 -13.917550
v -0.262282 1.488746 -14.190027
v -0.260013 0.385426 -14.560597
v -0.257075 -0.703364 -15.023148
v -0.253685 -1.766650 -15.571335
v -0.249785 -2.793215 -16.199055
v -0.245387 -3.772022 -16.899895
v -0.240647 -4.692038 -17.667732
v -0.235437 -5.542041 -18.496281
v -0.229960 -6.311122 -19.379364
vn -1.0000 -0.0000 -0.0061
vn -1.0000 -0.0000 -0.0063
vn -1.0000 -0.0000 -0.0062
vn -1.0000 -0.0001 -0.0062
vn -1.0000 0.0001 -0.0062
vn -1.0000 -0.0001 -0.0063
vn -1.0000 -0.0002 -0.0063
vn -1.0000 -0.0004 -0.0063
vn -1.0000 0.0001 -0.0059
vn -1.0000 0.0007 -0.0062
vn -1.0000 0.0004 -0.0069
vn -1.0000 0.0012 -0.0039
vn -1.0000 0.0012 -0.0040
vn -1.0000 0.0015 -0.0055
vn -0.9996 -0.0235 0.0167
vn -0.9997 -0.0146 0.0202
vn -0.9996 -0.0190 0.0185
vn -1.0000 -0.0003 -0.0062
vn -1.0000 -0.0003 -0.0063
vn -1.0000 -0.0002 -0.0062
vn -1.0000 0.0003 -0.0062
vn -1.0000 0.0004 -0.0063
vn -1.0000 0.0004 -0.0064
vn -1.0000 -0.0001 -0.0058
vn -1.0000 -0.0014 -0.0064
vn -1.0000 0.0001 -0.0019
vn -1.0000 0.0002 -0.0019
vn -0.9999 -0.0024 -0.0111
vn -0.9999 -0.0022 -0.0112
vn -0.9999 -0.0026 -0.0110
vn -0.9996 0.0071 -0.0265
vn -0.9996 0.0092 -0.0275
vn -0.9997 0.0050 -0.0255
vt 0.499269 0.831550
vt 0.500607 0.850882
vt 0.501944 0.831550
vt 0.494858 0.804868
vt 0.506356 0.804868
vt 0.486772 0.772501
vt 0.514442 0.772501
vt 0.474413 0.736114
vt 0.526803 0.736114
vt 0.457178 0.697370
vt 0.544038 0.697370
vt 0.434469 0.657934
vt 0.566748 0.657934
vt 0.405686 0.619471
vt 0.595532 0.619471
vt 0.370228 0.583645
vt 0.630990 0.583645
vt 0.327496 0.552120
vt 0.673722 0.552120
vt 0.276889 0.526562
vt 0.724328 0.526562
vt 0.217807 0.508634
vt 0.783408 0.508634
vt 0.149650 0.500001
vt 0.851562 0.500001
vt 0.217807 0.491368
vt 0.783408 0.491368
vt 0.724328 0.473440
vt 0.276889 0.473440
vt 0.673722 0.447882
vt 0.327496 0.447882
vt 0.630990 0.416357
vt 0.370228 0.416357
vt 0.595532 0.380531
vt 0.405686 0.380531
vt 0.566748 0.342068
vt 0.434469 0.342068
vt 0.457178 0.302632
vt 0.544038 0.302632
vt 0.474413 0.263888
vt 0.526803 0.263888
vt 0.486773 0.227500
vt 0.514442 0.227500
vt 0.494858 0.195133
vt 0.506356 0.195133
vt 0.499270 0.168452
vt 0.501944 0.168452
vt 0.500607 0.149121
vt 0.281379 0.705687
vt 0.282315 0.723309
vt 0.286682 0.723309
vt 0.298756 0.723309
vt 0.316994 0.723309
vt 0.339855 0.723309
vt 0.365800 0.723309
vt 0.393285 0.723309
vt 0.420771 0.723309
vt 0.446715 0.723309
vt 0.469577 0.723309
vt 0.487815 0.723309
vt 0.499888 0.723309
vt 0.504255 0.723309
vt 0.504250 0.714450
vt 0.504226 0.705973
vt 0.504170 0.697871
vt 0.278638 0.687759
vt 0.504069 0.690140
vt 0.503910 0.682773
vt 0.274194 0.669706
vt 0.503680 0.675765
vt 0.503365 0.669110
vt 0.268149 0.651709
vt 0.502952 0.662803
vt 0.502429 0.656839
vt 0.501783 0.651211
vt 0.260604 0.633949
vt 0.500999 0.645914
vt 0.500066 0.640943
vt 0.492529 0.610056
vt 0.251662 0.616605
vt 0.241424 0.599860
vt 0.483123 0.580003
vt 0.229991 0.583894
vt 0.217466 0.568887
vt 0.471896 0.550852
vt 0.203951 0.555022
vt 0.189546 0.542477
vt 0.458893 0.522669
vt 0.174354 0.531435
vt 0.166832 0.526698
vt 0.156884 0.520770
vt 0.444159 0.495523
vt 0.144613 0.513689
vt 0.130119 0.505494
vt 0.113501 0.496222
vt 0.094862 0.485912
vt 0.427740 0.469482
vt 0.074302 0.474602
vt 0.051921 0.462331
vt 0.409683 0.444612
vt 0.027819 0.449135
vt 0.002099 0.435054
vt 0.390033 0.420982
vt -0.025141 0.420126
vt 0.368835 0.398659
vt -0.053799 0.404388
vt -0.058002 0.402059
vt -0.069623 0.395619
vt 0.346136 0.377712
vt -0.087178 0.385892
vt -0.109183 0.373698
vt 0.321982 0.358207
vt -0.134156 0.359860
vt -0.160612 0.345200
vt 0.296417 0.340213
vt -0.187068 0.330540
vt 0.282494 0.331975
vt 0.254540 0.316111
vt -0.212040 0.316702
vt -0.234046 0.304508
vt 0.215462 0.294210
vt -0.251601 0.294780
vt -0.263222 0.288340
vt 0.168163 0.267863
vt -0.267425 0.286011
vt -0.157549 0.087854
vt 0.115549 0.238661
vt 0.060525 0.208192
vt 0.005995 0.178048
vt -0.045134 0.149819
vt -0.089958 0.125095
vt -0.125572 0.105466
vt -0.149070 0.092522
vt 0.502281 0.714450
vt 0.502276 0.723309
vt 0.506643 0.723309
vt 0.518716 0.723309
vt 0.536954 0.723309
vt 0.559816 0.723309
vt 0.585760 0.723309
vt 0.613245 0.723309
vt 0.640730 0.723309
vt 0.666674 0.723309
vt 0.689536 0.723309
vt 0.707773 0.723309
vt 0.719846 0.723309
vt 0.724213 0.723309
vt 0.725150 0.705687
vt 0.502305 0.705973
vt 0.502360 0.697871
vt 0.727891 0.687759
vt 0.502461 0.690140
vt 0.502619 0.682773
vt 0.732335 0.669706
vt 0.502849 0.675765
vt 0.503163 0.669110
vt 0.738380 0.651709
vt 0.503575 0.662803
vt 0.504098 0.656839
vt 0.504744 0.651211
vt 0.745925 0.633949
vt 0.505527 0.645914
vt 0.506460 0.640943
vt 0.513998 0.610056
vt 0.754867 0.616605
vt 0.765106 0.599860
vt 0.523403 0.580003
vt 0.776538 0.583894
vt 0.789063 0.568887
vt 0.534630 0.550852
vt 0.802579 0.555022
vt 0.816983 0.542477
vt 0.547633 0.522669
vt 0.832175 0.531435
vt 0.839697 0.526698
vt 0.849643 0.520770
vt 0.562367 0.495523
vt 0.861914 0.513689
vt 0.876408 0.505494
vt 0.893025 0.496222
vt 0.911664 0.485912
vt 0.578786 0.469482
vt 0.932225 0.474602
vt 0.954606 0.462331
vt 0.596843 0.444612
vt 0.978707 0.449135
vt 1.004428 0.435054
vt 0.616493 0.420982
vt 1.031667 0.420126
vt 0.637691 0.398659
vt 1.060324 0.404388
vt 1.064527 0.402059
vt 1.076148 0.395619
vt 0.660390 0.377712
vt 1.093704 0.385892
vt 1.115709 0.373698
vt 0.684544 0.358207
vt 1.140682 0.359860
vt 1.167139 0.345200
vt 0.710109 0.340213
vt 1.193595 0.330540
vt 0.724032 0.331975
vt 0.751985 0.316111
vt 1.218568 0.316702
vt 1.240574 0.304508
vt 0.791064 0.294210
vt 1.258129 0.294780
vt 1.269750 0.288340
vt 0.838363 0.267863
vt 1.273954 0.286011
vt 1.164074 0.087854
vt 0.890977 0.238661
vt 0.946001 0.208192
vt 1.000530 0.178048
vt 1.051659 0.149819
vt 1.096483 0.125095
vt 1.132097 0.105466
vt 1.155596 0.092522
s 0
usemtl Gun_Metal
f 48/1/1 1/2/1 2/3/1
f 47/4/1 48/1/1 2/3/1
f 47/4/2 2/3/2 3/5/2
f 46/6/2 47/4/2 3/5/2
f 46/6/3 3/5/3 4/7/3
f 45/8/3 46/6/3 4/7/3
f 45/8/3 4/7/3 5/9/3
f 44/10/3 45/8/3 5/9/3
f 44/10/3 5/9/3 6/11/3
f 43/12/3 44/10/3 6/11/3
f 43/12/3 6/11/3 7/13/3
f 42/14/3 43/12/3 7/13/3
f 42/14/3 7/13/3 8/15/3
f 41/16/3 42/14/3 8/15/3
f 41/16/3 8/15/3 9/17/3
f 40/18/3 41/16/3 9/17/3
f 40/18/3 9/17/3 10/19/3
f 39/20/3 40/18/3 10/19/3
f 39/20/3 10/19/3 11/21/3
f 38/22/3 39/20/3 11/21/3
f 38/22/3 11/21/3 12/23/3
f 37/24/4 38/22/4 12/23/4
f 37/24/3 12/23/3 13/25/3
f 36/26/5 37/24/5 13/25/5
f 36/26/3 13/25/3 14/27/3
f 36/26/3 14/27/3 15/28/3
f 35/29/3 36/26/3 15/28/3
f 35/29/3 15/28/3 16/30/3
f 34/31/3 35/29/3 16/30/3
f 34/31/3 16/30/3 17/32/3
f 33/33/3 34/31/3 17/32/3
f 33/33/3 17/32/3 18/34/3
f 32/35/3 33/33/3 18/34/3
f 32/35/3 18/34/3 19/36/3
f 31/37/3 32/35/3 19/36/3
f 30/38/3 31/37/3 19/36/3
f 30/38/3 19/36/3 20/39/3
f 29/40/3 30/38/3 20/39/3
f 29/40/3 20/39/3 21/41/3
f 28/42/3 29/40/3 21/41/3
f 28/42/3 21/41/3 22/43/3
f 27/44/3 28/42/3 22/43/3
f 27/44/2 22/43/2 23/45/2
f 26/46/2 27/44/2 23/45/2
f 26/46/1 23/45/1 24/47/1
f 25/48/1 26/46/1 24/47/1
f 123/49/2 122/50/2 121/51/2
f 123/49/5 121/51/5 120/52/5
f 123/49/3 120/52/3 119/53/3
f 123/49/6 119/53/6 118/54/6
f 123/49/5 118/54/5 117/55/5
f 123/49/5 117/55/5 116/56/5
f 123/49/5 116/56/5 115/57/5
f 123/49/7 115/57/7 114/58/7
f 123/49/4 114/58/4 113/59/4
f 123/49/3 113/59/3 112/60/3
f 123/49/4 112/60/4 111/61/4
f 123/49/3 111/61/3 110/62/3
f 123/49/3 110/62/3 109/63/3
f 123/49/3 109/63/3 108/64/3
f 123/49/3 108/64/3 107/65/3
f 124/66/3 123/49/3 107/65/3
f 124/66/4 107/65/4 106/67/4
f 124/66/3 106/67/3 105/68/3
f 125/69/3 124/66/3 105/68/3
f 125/69/5 105/68/5 104/70/5
f 125/69/3 104/70/3 103/71/3
f 126/72/3 125/69/3 103/71/3
f 126/72/3 103/71/3 102/73/3
f 126/72/3 102/73/3 101/74/3
f 126/72/3 101/74/3 100/75/3
f 127/76/3 126/72/3 100/75/3
f 127/76/3 100/75/3 99/77/3
f 127/76/3 99/77/3 98/78/3
f 127/76/3 98/78/3 97/79/3
f 128/80/3 127/76/3 97/79/3
f 129/81/3 128/80/3 97/79/3
f 129/81/3 97/79/3 96/82/3
f 130/83/3 129/81/3 96/82/3
f 131/84/3 130/83/3 96/82/3
f 131/84/3 96/82/3 95/85/3
f 132/86/3 131/84/3 95/85/3
f 133/87/3 132/86/3 95/85/3
f 133/87/3 95/85/3 94/88/3
f 49/89/3 133/87/3 94/88/3
f 50/90/3 49/89/3 94/88/3
f 51/91/5 50/90/5 94/88/5
f 51/91/3 94/88/3 93/92/3
f 52/93/4 51/91/4 93/92/4
f 53/94/3 52/93/3 93/92/3
f 54/95/5 53/94/5 93/92/5
f 55/96/3 54/95/3 93/92/3
f 55/96/3 93/92/3 92/97/3
f 56/98/3 55/96/3 92/97/3
f 57/99/3 56/98/3 92/97/3
f 57/99/3 92/97/3 91/100/3
f 58/101/3 57/99/3 91/100/3
f 59/102/3 58/101/3 91/100/3
f 59/102/3 91/100/3 90/103/3
f 60/104/3 59/102/3 90/103/3
f 60/104/3 90/103/3 89/105/3
f 61/106/3 60/104/3 89/105/3
f 62/107/4 61/106/4 89/105/4
f 63/108/4 62/107/4 89/105/4
f 63/108/3 89/105/3 88/109/3
f 64/110/3 63/108/3 88/109/3
f 65/111/3 64/110/3 88/109/3
f 65/111/3 88/109/3 87/112/3
f 66/113/3 65/111/3 87/112/3
f 67/114/3 66/113/3 87/112/3
f 67/114/4 87/112/4 86/115/4
f 68/116/3 67/114/3 86/115/3
f 68/116/5 86/115/5 85/117/5
f 68/116/3 85/117/3 84/118/3
f 69/119/3 68/116/3 84/118/3
f 70/120/3 69/119/3 84/118/3
f 70/120/3 84/118/3 83/121/3
f 71/122/3 70/120/3 83/121/3
f 72/123/5 71/122/5 83/121/5
f 72/123/3 83/121/3 82/124/3
f 73/125/3 72/123/3 82/124/3
f 74/126/3 73/125/3 82/124/3
f 74/126/8 82/124/8 81/127/8
f 74/126/9 81/127/9 80/128/9
f 74/126/10 80/128/10 79/129/10
f 74/126/11 79/129/11 78/130/11
f 74/126/12 78/130/13 77/131/12
f 74/126/14 77/131/14 76/132/14
f 74/126/15 76/132/16 75/133/17
f 109/134/2 110/135/2 188/136/2
f 109/134/2 188/136/2 189/137/2
f 109/134/18 189/137/18 190/138/18
f 109/134/3 190/138/3 191/139/3
f 109/134/5 191/139/5 192/140/5
f 109/134/6 192/140/6 193/141/6
f 109/134/5 193/141/5 194/142/5
f 109/134/19 194/142/19 195/143/19
f 109/134/3 195/143/3 196/144/3
f 109/134/5 196/144/5 197/145/5
f 109/134/3 197/145/3 198/146/3
f 109/134/4 198/146/4 199/147/4
f 109/134/3 199/147/3 200/148/3
f 108/149/3 109/134/3 200/148/3
f 107/150/3 108/149/3 200/148/3
f 107/150/3 200/148/3 201/151/3
f 106/152/4 107/150/4 201/151/4
f 105/153/3 106/152/3 201/151/3
f 105/153/3 201/151/3 202/154/3
f 104/155/5 105/153/5 202/154/5
f 103/156/3 104/155/3 202/154/3
f 103/156/3 202/154/3 203/157/3
f 187/158/4 103/156/4 203/157/4
f 186/159/5 187/158/5 203/157/5
f 185/160/4 186/159/4 203/157/4
f 185/160/4 203/157/4 204/161/4
f 184/162/3 185/160/3 204/161/3
f 183/163/3 184/162/3 204/161/3
f 182/164/3 183/163/3 204/161/3
f 182/164/3 204/161/3 205/165/3
f 182/164/3 205/165/3 206/166/3
f 181/167/3 182/164/3 206/166/3
f 181/167/3 206/166/3 207/168/3
f 181/167/5 207/168/5 208/169/5
f 180/170/3 181/167/3 208/169/3
f 180/170/3 208/169/3 209/171/3
f 180/170/3 209/171/3 210/172/3
f 179/173/3 180/170/3 210/172/3
f 179/173/3 210/172/3 134/174/3
f 179/173/5 134/174/5 135/175/5
f 179/173/20 135/175/20 136/176/20
f 178/177/3 179/173/3 136/176/3
f 178/177/5 136/176/5 137/178/5
f 178/177/3 137/178/3 138/179/3
f 178/177/3 138/179/3 139/180/3
f 178/177/3 139/180/3 140/181/3
f 177/182/3 178/177/3 140/181/3
f 177/182/3 140/181/3 141/183/3
f 177/182/5 141/183/5 142/184/5
f 176/185/3 177/182/3 142/184/3
f 176/185/3 142/184/3 143/186/3
f 176/185/3 143/186/3 144/187/3
f 175/188/3 176/185/3 144/187/3
f 175/188/3 144/187/3 145/189/3
f 174/190/3 175/188/3 145/189/3
f 174/190/3 145/189/3 146/191/3
f 174/190/3 146/191/3 147/192/3
f 174/190/3 147/192/3 148/193/3
f 173/194/3 174/190/3 148/193/3
f 173/194/3 148/193/3 149/195/3
f 173/194/3 149/195/3 150/196/3
f 172/197/3 173/194/3 150/196/3
f 172/197/3 150/196/3 151/198/3
f 172/197/3 151/198/3 152/199/3
f 171/200/3 172/197/3 152/199/3
f 171/200/3 152/199/3 153/201/3
f 170/202/3 171/200/3 153/201/3
f 169/203/3 170/202/3 153/201/3
f 169/203/3 153/201/3 154/204/3
f 169/203/3 154/204/3 155/205/3
f 168/206/3 169/203/3 155/205/3
f 168/206/3 155/205/3 156/207/3
f 168/206/4 156/207/4 157/208/4
f 167/209/3 168/206/3 157/208/3
f 167/209/21 157/208/21 158/210/21
f 167/209/3 158/210/3 159/211/3
f 166/212/22 167/209/22 159/211/22
f 165/213/23 166/212/23 159/211/23
f 164/214/24 165/213/24 159/211/24
f 163/215/25 164/214/25 159/211/25
f 162/216/26 163/215/27 159/211/26
f 161/217/28 162/216/29 159/211/30
f 160/218/31 161/217/32 159/211/33
