<svg width="301" height="300" viewBox="0 0 301 300" fill="none" xmlns="http://www.w3.org/2000/svg">
<path d="M150.345 162H191.344C191.344 177.213 199.767 190.458 212.203 197.327L290.066 240.487L270.189 276.346L191.4 232.673C167.158 218.829 150.726 192.87 150.352 163.042C150.347 162.695 150.345 162.348 150.345 162Z" fill="black"/>
<path d="M150.847 162H109.848C109.848 177.213 101.426 190.458 88.9891 197.327L11.1265 240.487L31.0037 276.346L109.792 232.673C134.035 218.829 150.466 192.87 150.841 163.042C150.845 162.695 150.847 162.348 150.847 162Z" fill="black"/>
<path d="M87.0962 78.5C122.167 78.5 150.596 106.93 150.596 142C150.596 106.93 179.026 78.5 214.096 78.5C179.026 78.5 150.596 50.0701 150.596 15C150.596 50.0701 122.167 78.5 87.0962 78.5Z" fill="black"/>
</svg>
