# Blender 4.0.2
# www.blender.org
mtllib align_logo_flat_scaled.mtl
o Curve.006
v -0.306479 114.191116 0.731504
v -0.478004 111.711182 0.730451
v -1.043968 108.288513 0.726872
v -2.081309 104.136436 0.720429
v -3.666843 99.468529 0.710523
v -5.877867 94.498405 0.696777
v -8.791018 89.439507 0.678609
v -12.483309 84.505417 0.655584
v -17.031839 79.909607 0.627162
v -22.513462 75.865669 0.593104
v -29.005167 72.586937 0.552610
v -36.583878 70.287109 0.505344
v -45.326611 69.179779 0.450867
v -36.583878 68.072327 0.505344
v -29.005167 65.772499 0.552610
v -22.513466 62.493763 0.593102
v -17.031841 58.449821 0.627161
v -12.483310 53.853889 0.655582
v -8.791020 48.919807 0.678607
v -5.877869 43.860905 0.696774
v -3.666846 38.890774 0.710519
v -2.081313 34.223000 0.720425
v -1.043972 30.070923 0.726867
v -0.478008 26.648119 0.730446
v -0.306484 24.168314 0.731499
v -0.134959 26.648247 0.732553
v 0.431005 30.070923 0.736131
v 1.468166 34.223000 0.742555
v 3.053700 38.890774 0.752462
v 5.264543 43.860905 0.766189
v 8.177592 48.919807 0.784437
v 11.869884 53.853889 0.807463
v 16.418337 58.449821 0.835787
v 21.900045 62.493763 0.869943
v 28.391922 65.772499 0.910454
v 35.970806 68.072327 0.957737
v 44.713818 69.179779 1.012156
v 35.970806 70.287109 0.957737
v 28.391922 72.586937 0.910454
v 21.900043 75.865669 0.869943
v 16.418339 79.909607 0.835788
v 11.869885 84.505417 0.807464
v 8.177594 89.439507 0.784439
v 5.264545 94.498405 0.766192
v 3.053703 99.468529 0.752466
v 1.468169 104.136436 0.742559
v 0.431009 108.288513 0.736136
v -0.134955 111.711182 0.732557
v 41.884727 -14.622410 0.995155
v 42.849693 -15.230079 1.001188
v 44.125717 -15.990531 1.009186
v 45.699871 -16.898890 1.018912
v 47.559185 -17.950155 1.030473
v 49.690811 -19.139578 1.043899
v 52.081837 -20.462158 1.058760
v 54.719288 -21.913019 1.075164
v 57.590248 -23.487162 1.093048
v 60.681934 -25.179958 1.112355
v 63.981434 -26.986292 1.132843
v 67.475670 -28.901272 1.154707
v 71.151840 -30.920166 1.177607
v 71.691101 -31.218933 1.181055
v 73.181755 -32.045063 1.190303
v 75.433701 -33.292858 1.204383
v 78.256630 -34.857113 1.221924
v 81.460052 -36.632271 1.241907
v 84.853767 -38.512871 1.263067
v 88.247498 -40.393475 1.284232
v 91.450920 -42.168636 1.304219
v 94.273750 -43.732895 1.321843
v 96.525604 -44.980816 1.335820
v 98.016342 -45.806950 1.345171
v 98.555634 -46.105717 1.348436
v 84.460884 -71.525551 1.260613
v 83.373238 -70.926727 1.253869
v 80.358742 -69.266251 1.235018
v 75.790329 -66.748215 1.206532
v 70.040306 -63.576599 1.170740
v 63.481518 -59.955349 1.129842
v 56.486649 -56.088436 1.086190
v 49.428162 -52.179836 1.042122
v 42.678997 -48.433769 1.000125
v 36.611443 -45.053932 0.962327
v 31.598473 -42.244446 0.931031
v 28.012630 -40.209389 0.908676
v 26.226604 -39.152607 0.897442
v 22.947243 -36.844315 0.877132
v 19.848724 -34.342190 0.857749
v 16.936935 -31.655083 0.839634
v 14.217731 -28.791460 0.822662
v 11.697017 -25.760174 0.806995
v 9.380647 -22.569946 0.792510
v 7.274530 -19.229244 0.779366
v 5.384417 -15.746922 0.767523
v 3.716398 -12.131569 0.757158
v 2.276142 -8.392041 0.748130
v 1.069641 -4.536803 0.740698
v 0.102846 -0.574579 0.734659
v -0.016907 0.063107 0.733882
v -0.117345 0.742613 0.733288
v -0.200372 1.464580 0.732772
v -0.267451 2.229650 0.732364
v -0.307462 3.038719 0.732126
v -0.307462 3.892432 0.732126
v -0.307543 4.791427 0.732026
v -0.307543 5.736475 0.732026
v -0.307642 6.728218 0.732107
v -0.307642 7.767553 0.732107
v -0.307642 8.854994 0.732107
v -0.307642 9.991437 0.732107
v 0.125627 9.991437 0.734839
v 1.674354 9.991437 0.744384
v 4.013866 9.991437 0.759087
v 6.946530 9.991436 0.777275
v 10.274714 9.991436 0.798104
v 13.800412 9.991436 0.820040
v 17.326290 9.991436 0.841997
v 20.654394 9.991434 0.862723
v 23.587042 9.991434 0.881095
v 25.926653 9.991434 0.895714
v 27.475382 9.991434 0.905262
v 28.035513 9.991434 0.908777
v 28.155624 7.730863 0.909593
v 28.507248 5.431036 0.911681
v 29.077398 3.115173 0.915328
v 29.852818 0.806496 0.920074
v 30.820614 -1.471780 0.926124
v 31.967770 -3.696690 0.933316
v 33.281078 -5.844761 0.941455
v 34.747684 -7.892900 0.950581
v 36.354347 -9.818019 0.960677
v 38.088165 -11.596638 0.971500
v 39.935913 -13.205927 0.983040
v -42.499729 -14.622406 0.469000
v -43.464622 -15.230073 0.463065
v -44.740551 -15.990526 0.454981
v -46.314701 -16.898886 0.445255
v -48.173923 -17.950151 0.433614
v -50.305569 -19.139574 0.420371
v -52.696491 -20.462154 0.405430
v -55.334026 -21.913015 0.388922
v -58.205090 -23.487156 0.371122
v -61.296772 -25.179953 0.351812
v -64.596153 -26.986284 0.331240
v -68.090317 -28.901266 0.309487
v -71.766388 -30.920156 0.286506
v -72.305565 -31.218924 0.283154
v -73.796402 -32.045048 0.273887
v -76.048347 -33.292847 0.259802
v -78.871170 -34.857105 0.242182
v -82.074699 -36.632263 0.222279
v -85.468414 -38.512863 0.201107
v -88.862312 -40.393467 0.179927
v -92.065742 -42.168629 0.159940
v -94.888672 -43.732887 0.142400
v -97.140602 -44.980808 0.128316
v -98.631355 -45.806942 0.118965
v -99.170647 -46.105709 0.115700
v -85.075333 -71.525543 0.203584
v -83.987785 -70.926727 0.210416
v -80.973373 -69.266251 0.229172
v -76.404877 -66.748222 0.257570
v -70.654945 -63.576595 0.293441
v -64.096176 -59.955341 0.334344
v -57.101307 -56.088432 0.377996
v -50.042824 -52.179825 0.422060
v -43.293644 -48.433762 0.464059
v -37.226093 -45.053936 0.501857
v -32.213123 -42.244442 0.533151
v -28.627277 -40.209389 0.555506
v -26.841326 -39.152607 0.566643
v -23.561888 -36.844315 0.587054
v -20.463369 -34.342190 0.606437
v -17.551582 -31.655087 0.624553
v -14.832378 -28.791460 0.641524
v -12.311666 -25.760174 0.657191
v -9.995295 -22.569946 0.671675
v -7.889177 -19.229244 0.684820
v -5.999062 -15.746922 0.696664
v -4.331042 -12.131569 0.707030
v -2.890867 -8.392041 0.715959
v -1.684286 -4.536803 0.723491
v -0.717490 -0.574579 0.729530
v -0.597737 0.063107 0.730308
v -0.497299 0.742613 0.730901
v -0.414371 1.464580 0.731498
v -0.347373 2.229650 0.731806
v -0.740911 9.991437 0.729375
v -2.289620 9.991437 0.719650
v -4.629151 9.991437 0.705128
v -7.561895 9.991436 0.686840
v -10.889821 9.991437 0.666131
v -14.415598 9.991437 0.644094
v -17.941473 9.991437 0.622139
v -21.269478 9.991436 0.601330
v -24.202141 9.991436 0.583139
v -26.541655 9.991436 0.568438
v -28.090378 9.991436 0.558893
v -28.650520 9.991436 0.555374
v -28.770628 7.730866 0.554558
v -29.122255 5.431038 0.552471
v -29.692410 3.115177 0.548822
v -30.467821 0.806498 0.544075
v -31.435699 -1.471777 0.537926
v -32.582775 -3.696688 0.530834
v -33.896267 -5.844758 0.522674
v -35.362766 -7.892896 0.513470
v -36.969456 -9.818015 0.503553
v -38.703175 -11.596634 0.492649
v -40.551014 -13.205923 0.481190
vn -0.0061 -0.0000 1.0000
vn -0.0063 -0.0000 1.0000
vn -0.0062 -0.0000 1.0000
vn -0.0062 -0.0001 1.0000
vn -0.0062 0.0001 1.0000
vn -0.0063 -0.0001 1.0000
vn -0.0063 -0.0002 1.0000
vn -0.0063 -0.0004 1.0000
vn -0.0059 0.0001 1.0000
vn -0.0062 0.0007 1.0000
vn -0.0069 0.0004 1.0000
vn -0.0039 0.0012 1.0000
vn -0.0040 0.0012 1.0000
vn -0.0055 0.0015 1.0000
vn 0.0167 -0.0235 0.9996
vn 0.0202 -0.0146 0.9997
vn 0.0185 -0.0190 0.9996
vn -0.0062 -0.0003 1.0000
vn -0.0063 -0.0003 1.0000
vn -0.0062 -0.0002 1.0000
vn -0.0062 0.0003 1.0000
vn -0.0063 0.0004 1.0000
vn -0.0064 0.0004 1.0000
vn -0.0058 -0.0001 1.0000
vn -0.0064 -0.0014 1.0000
vn -0.0019 0.0001 1.0000
vn -0.0019 0.0002 1.0000
vn -0.0111 -0.0024 0.9999
vn -0.0112 -0.0022 0.9999
vn -0.0110 -0.0026 0.9999
vn -0.0265 0.0071 0.9996
vn -0.0275 0.0092 0.9996
vn -0.0255 0.0050 0.9997
vt 0.499269 0.831550
vt 0.500607 0.850882
vt 0.501944 0.831550
vt 0.494858 0.804868
vt 0.506356 0.804868
vt 0.486772 0.772501
vt 0.514442 0.772501
vt 0.474413 0.736114
vt 0.526803 0.736114
vt 0.457178 0.697370
vt 0.544038 0.697370
vt 0.434469 0.657934
vt 0.566748 0.657934
vt 0.405686 0.619471
vt 0.595532 0.619471
vt 0.370228 0.583645
vt 0.630990 0.583645
vt 0.327496 0.552120
vt 0.673722 0.552120
vt 0.276889 0.526562
vt 0.724328 0.526562
vt 0.217807 0.508634
vt 0.783408 0.508634
vt 0.149650 0.500001
vt 0.851562 0.500001
vt 0.217807 0.491368
vt 0.783408 0.491368
vt 0.724328 0.473440
vt 0.276889 0.473440
vt 0.673722 0.447882
vt 0.327496 0.447882
vt 0.630990 0.416357
vt 0.370228 0.416357
vt 0.595532 0.380531
vt 0.405686 0.380531
vt 0.566748 0.342068
vt 0.434469 0.342068
vt 0.457178 0.302632
vt 0.544038 0.302632
vt 0.474413 0.263888
vt 0.526803 0.263888
vt 0.486773 0.227500
vt 0.514442 0.227500
vt 0.494858 0.195133
vt 0.506356 0.195133
vt 0.499270 0.168452
vt 0.501944 0.168452
vt 0.500607 0.149121
vt 0.281379 0.705687
vt 0.282315 0.723309
vt 0.286682 0.723309
vt 0.298756 0.723309
vt 0.316994 0.723309
vt 0.339855 0.723309
vt 0.365800 0.723309
vt 0.393285 0.723309
vt 0.420771 0.723309
vt 0.446715 0.723309
vt 0.469577 0.723309
vt 0.487815 0.723309
vt 0.499888 0.723309
vt 0.504255 0.723309
vt 0.504250 0.714450
vt 0.504226 0.705973
vt 0.504170 0.697871
vt 0.278638 0.687759
vt 0.504069 0.690140
vt 0.503910 0.682773
vt 0.274194 0.669706
vt 0.503680 0.675765
vt 0.503365 0.669110
vt 0.268149 0.651709
vt 0.502952 0.662803
vt 0.502429 0.656839
vt 0.501783 0.651211
vt 0.260604 0.633949
vt 0.500999 0.645914
vt 0.500066 0.640943
vt 0.492529 0.610056
vt 0.251662 0.616605
vt 0.241424 0.599860
vt 0.483123 0.580003
vt 0.229991 0.583894
vt 0.217466 0.568887
vt 0.471896 0.550852
vt 0.203951 0.555022
vt 0.189546 0.542477
vt 0.458893 0.522669
vt 0.174354 0.531435
vt 0.166832 0.526698
vt 0.156884 0.520770
vt 0.444159 0.495523
vt 0.144613 0.513689
vt 0.130119 0.505494
vt 0.113501 0.496222
vt 0.094862 0.485912
vt 0.427740 0.469482
vt 0.074302 0.474602
vt 0.051921 0.462331
vt 0.409683 0.444612
vt 0.027819 0.449135
vt 0.002099 0.435054
vt 0.390033 0.420982
vt -0.025141 0.420126
vt 0.368835 0.398659
vt -0.053799 0.404388
vt -0.058002 0.402059
vt -0.069623 0.395619
vt 0.346136 0.377712
vt -0.087178 0.385892
vt -0.109183 0.373698
vt 0.321982 0.358207
vt -0.134156 0.359860
vt -0.160612 0.345200
vt 0.296417 0.340213
vt -0.187068 0.330540
vt 0.282494 0.331975
vt 0.254540 0.316111
vt -0.212040 0.316702
vt -0.234046 0.304508
vt 0.215462 0.294210
vt -0.251601 0.294780
vt -0.263222 0.288340
vt 0.168163 0.267863
vt -0.267425 0.286011
vt -0.157549 0.087854
vt 0.115549 0.238661
vt 0.060525 0.208192
vt 0.005995 0.178048
vt -0.045134 0.149819
vt -0.089958 0.125095
vt -0.125572 0.105466
vt -0.149070 0.092522
vt 0.502281 0.714450
vt 0.502276 0.723309
vt 0.506643 0.723309
vt 0.518716 0.723309
vt 0.536954 0.723309
vt 0.559816 0.723309
vt 0.585760 0.723309
vt 0.613245 0.723309
vt 0.640730 0.723309
vt 0.666674 0.723309
vt 0.689536 0.723309
vt 0.707773 0.723309
vt 0.719846 0.723309
vt 0.724213 0.723309
vt 0.725150 0.705687
vt 0.502305 0.705973
vt 0.502360 0.697871
vt 0.727891 0.687759
vt 0.502461 0.690140
vt 0.502619 0.682773
vt 0.732335 0.669706
vt 0.502849 0.675765
vt 0.503163 0.669110
vt 0.738380 0.651709
vt 0.503575 0.662803
vt 0.504098 0.656839
vt 0.504744 0.651211
vt 0.745925 0.633949
vt 0.505527 0.645914
vt 0.506460 0.640943
vt 0.513998 0.610056
vt 0.754867 0.616605
vt 0.765106 0.599860
vt 0.523403 0.580003
vt 0.776538 0.583894
vt 0.789063 0.568887
vt 0.534630 0.550852
vt 0.802579 0.555022
vt 0.816983 0.542477
vt 0.547633 0.522669
vt 0.832175 0.531435
vt 0.839697 0.526698
vt 0.849643 0.520770
vt 0.562367 0.495523
vt 0.861914 0.513689
vt 0.876408 0.505494
vt 0.893025 0.496222
vt 0.911664 0.485912
vt 0.578786 0.469482
vt 0.932225 0.474602
vt 0.954606 0.462331
vt 0.596843 0.444612
vt 0.978707 0.449135
vt 1.004428 0.435054
vt 0.616493 0.420982
vt 1.031667 0.420126
vt 0.637691 0.398659
vt 1.060324 0.404388
vt 1.064527 0.402059
vt 1.076148 0.395619
vt 0.660390 0.377712
vt 1.093704 0.385892
vt 1.115709 0.373698
vt 0.684544 0.358207
vt 1.140682 0.359860
vt 1.167139 0.345200
vt 0.710109 0.340213
vt 1.193595 0.330540
vt 0.724032 0.331975
vt 0.751985 0.316111
vt 1.218568 0.316702
vt 1.240574 0.304508
vt 0.791064 0.294210
vt 1.258129 0.294780
vt 1.269750 0.288340
vt 0.838363 0.267863
vt 1.273954 0.286011
vt 1.164074 0.087854
vt 0.890977 0.238661
vt 0.946001 0.208192
vt 1.000530 0.178048
vt 1.051659 0.149819
vt 1.096483 0.125095
vt 1.132097 0.105466
vt 1.155596 0.092522
s 0
usemtl Gun_Metal
f 48/1/1 1/2/1 2/3/1
f 47/4/1 48/1/1 2/3/1
f 47/4/2 2/3/2 3/5/2
f 46/6/2 47/4/2 3/5/2
f 46/6/3 3/5/3 4/7/3
f 45/8/3 46/6/3 4/7/3
f 45/8/3 4/7/3 5/9/3
f 44/10/3 45/8/3 5/9/3
f 44/10/3 5/9/3 6/11/3
f 43/12/3 44/10/3 6/11/3
f 43/12/3 6/11/3 7/13/3
f 42/14/3 43/12/3 7/13/3
f 42/14/3 7/13/3 8/15/3
f 41/16/3 42/14/3 8/15/3
f 41/16/3 8/15/3 9/17/3
f 40/18/3 41/16/3 9/17/3
f 40/18/3 9/17/3 10/19/3
f 39/20/3 40/18/3 10/19/3
f 39/20/3 10/19/3 11/21/3
f 38/22/3 39/20/3 11/21/3
f 38/22/3 11/21/3 12/23/3
f 37/24/4 38/22/4 12/23/4
f 37/24/3 12/23/3 13/25/3
f 36/26/5 37/24/5 13/25/5
f 36/26/3 13/25/3 14/27/3
f 36/26/3 14/27/3 15/28/3
f 35/29/3 36/26/3 15/28/3
f 35/29/3 15/28/3 16/30/3
f 34/31/3 35/29/3 16/30/3
f 34/31/3 16/30/3 17/32/3
f 33/33/3 34/31/3 17/32/3
f 33/33/3 17/32/3 18/34/3
f 32/35/3 33/33/3 18/34/3
f 32/35/3 18/34/3 19/36/3
f 31/37/3 32/35/3 19/36/3
f 30/38/3 31/37/3 19/36/3
f 30/38/3 19/36/3 20/39/3
f 29/40/3 30/38/3 20/39/3
f 29/40/3 20/39/3 21/41/3
f 28/42/3 29/40/3 21/41/3
f 28/42/3 21/41/3 22/43/3
f 27/44/3 28/42/3 22/43/3
f 27/44/2 22/43/2 23/45/2
f 26/46/2 27/44/2 23/45/2
f 26/46/1 23/45/1 24/47/1
f 25/48/1 26/46/1 24/47/1
f 123/49/2 122/50/2 121/51/2
f 123/49/5 121/51/5 120/52/5
f 123/49/3 120/52/3 119/53/3
f 123/49/6 119/53/6 118/54/6
f 123/49/5 118/54/5 117/55/5
f 123/49/5 117/55/5 116/56/5
f 123/49/5 116/56/5 115/57/5
f 123/49/7 115/57/7 114/58/7
f 123/49/4 114/58/4 113/59/4
f 123/49/3 113/59/3 112/60/3
f 123/49/4 112/60/4 111/61/4
f 123/49/3 111/61/3 110/62/3
f 123/49/3 110/62/3 109/63/3
f 123/49/3 109/63/3 108/64/3
f 123/49/3 108/64/3 107/65/3
f 124/66/3 123/49/3 107/65/3
f 124/66/4 107/65/4 106/67/4
f 124/66/3 106/67/3 105/68/3
f 125/69/3 124/66/3 105/68/3
f 125/69/5 105/68/5 104/70/5
f 125/69/3 104/70/3 103/71/3
f 126/72/3 125/69/3 103/71/3
f 126/72/3 103/71/3 102/73/3
f 126/72/3 102/73/3 101/74/3
f 126/72/3 101/74/3 100/75/3
f 127/76/3 126/72/3 100/75/3
f 127/76/3 100/75/3 99/77/3
f 127/76/3 99/77/3 98/78/3
f 127/76/3 98/78/3 97/79/3
f 128/80/3 127/76/3 97/79/3
f 129/81/3 128/80/3 97/79/3
f 129/81/3 97/79/3 96/82/3
f 130/83/3 129/81/3 96/82/3
f 131/84/3 130/83/3 96/82/3
f 131/84/3 96/82/3 95/85/3
f 132/86/3 131/84/3 95/85/3
f 133/87/3 132/86/3 95/85/3
f 133/87/3 95/85/3 94/88/3
f 49/89/3 133/87/3 94/88/3
f 50/90/3 49/89/3 94/88/3
f 51/91/5 50/90/5 94/88/5
f 51/91/3 94/88/3 93/92/3
f 52/93/4 51/91/4 93/92/4
f 53/94/3 52/93/3 93/92/3
f 54/95/5 53/94/5 93/92/5
f 55/96/3 54/95/3 93/92/3
f 55/96/3 93/92/3 92/97/3
f 56/98/3 55/96/3 92/97/3
f 57/99/3 56/98/3 92/97/3
f 57/99/3 92/97/3 91/100/3
f 58/101/3 57/99/3 91/100/3
f 59/102/3 58/101/3 91/100/3
f 59/102/3 91/100/3 90/103/3
f 60/104/3 59/102/3 90/103/3
f 60/104/3 90/103/3 89/105/3
f 61/106/3 60/104/3 89/105/3
f 62/107/4 61/106/4 89/105/4
f 63/108/4 62/107/4 89/105/4
f 63/108/3 89/105/3 88/109/3
f 64/110/3 63/108/3 88/109/3
f 65/111/3 64/110/3 88/109/3
f 65/111/3 88/109/3 87/112/3
f 66/113/3 65/111/3 87/112/3
f 67/114/3 66/113/3 87/112/3
f 67/114/4 87/112/4 86/115/4
f 68/116/3 67/114/3 86/115/3
f 68/116/5 86/115/5 85/117/5
f 68/116/3 85/117/3 84/118/3
f 69/119/3 68/116/3 84/118/3
f 70/120/3 69/119/3 84/118/3
f 70/120/3 84/118/3 83/121/3
f 71/122/3 70/120/3 83/121/3
f 72/123/5 71/122/5 83/121/5
f 72/123/3 83/121/3 82/124/3
f 73/125/3 72/123/3 82/124/3
f 74/126/3 73/125/3 82/124/3
f 74/126/8 82/124/8 81/127/8
f 74/126/9 81/127/9 80/128/9
f 74/126/10 80/128/10 79/129/10
f 74/126/11 79/129/11 78/130/11
f 74/126/12 78/130/13 77/131/12
f 74/126/14 77/131/14 76/132/14
f 74/126/15 76/132/16 75/133/17
f 109/134/2 110/135/2 188/136/2
f 109/134/2 188/136/2 189/137/2
f 109/134/18 189/137/18 190/138/18
f 109/134/3 190/138/3 191/139/3
f 109/134/5 191/139/5 192/140/5
f 109/134/6 192/140/6 193/141/6
f 109/134/5 193/141/5 194/142/5
f 109/134/19 194/142/19 195/143/19
f 109/134/3 195/143/3 196/144/3
f 109/134/5 196/144/5 197/145/5
f 109/134/3 197/145/3 198/146/3
f 109/134/4 198/146/4 199/147/4
f 109/134/3 199/147/3 200/148/3
f 108/149/3 109/134/3 200/148/3
f 107/150/3 108/149/3 200/148/3
f 107/150/3 200/148/3 201/151/3
f 106/152/4 107/150/4 201/151/4
f 105/153/3 106/152/3 201/151/3
f 105/153/3 201/151/3 202/154/3
f 104/155/5 105/153/5 202/154/5
f 103/156/3 104/155/3 202/154/3
f 103/156/3 202/154/3 203/157/3
f 187/158/4 103/156/4 203/157/4
f 186/159/5 187/158/5 203/157/5
f 185/160/4 186/159/4 203/157/4
f 185/160/4 203/157/4 204/161/4
f 184/162/3 185/160/3 204/161/3
f 183/163/3 184/162/3 204/161/3
f 182/164/3 183/163/3 204/161/3
f 182/164/3 204/161/3 205/165/3
f 182/164/3 205/165/3 206/166/3
f 181/167/3 182/164/3 206/166/3
f 181/167/3 206/166/3 207/168/3
f 181/167/5 207/168/5 208/169/5
f 180/170/3 181/167/3 208/169/3
f 180/170/3 208/169/3 209/171/3
f 180/170/3 209/171/3 210/172/3
f 179/173/3 180/170/3 210/172/3
f 179/173/3 210/172/3 134/174/3
f 179/173/5 134/174/5 135/175/5
f 179/173/20 135/175/20 136/176/20
f 178/177/3 179/173/3 136/176/3
f 178/177/5 136/176/5 137/178/5
f 178/177/3 137/178/3 138/179/3
f 178/177/3 138/179/3 139/180/3
f 178/177/3 139/180/3 140/181/3
f 177/182/3 178/177/3 140/181/3
f 177/182/3 140/181/3 141/183/3
f 177/182/5 141/183/5 142/184/5
f 176/185/3 177/182/3 142/184/3
f 176/185/3 142/184/3 143/186/3
f 176/185/3 143/186/3 144/187/3
f 175/188/3 176/185/3 144/187/3
f 175/188/3 144/187/3 145/189/3
f 174/190/3 175/188/3 145/189/3
f 174/190/3 145/189/3 146/191/3
f 174/190/3 146/191/3 147/192/3
f 174/190/3 147/192/3 148/193/3
f 173/194/3 174/190/3 148/193/3
f 173/194/3 148/193/3 149/195/3
f 173/194/3 149/195/3 150/196/3
f 172/197/3 173/194/3 150/196/3
f 172/197/3 150/196/3 151/198/3
f 172/197/3 151/198/3 152/199/3
f 171/200/3 172/197/3 152/199/3
f 171/200/3 152/199/3 153/201/3
f 170/202/3 171/200/3 153/201/3
f 169/203/3 170/202/3 153/201/3
f 169/203/3 153/201/3 154/204/3
f 169/203/3 154/204/3 155/205/3
f 168/206/3 169/203/3 155/205/3
f 168/206/3 155/205/3 156/207/3
f 168/206/4 156/207/4 157/208/4
f 167/209/3 168/206/3 157/208/3
f 167/209/21 157/208/21 158/210/21
f 167/209/3 158/210/3 159/211/3
f 166/212/22 167/209/22 159/211/22
f 165/213/23 166/212/23 159/211/23
f 164/214/24 165/213/24 159/211/24
f 163/215/25 164/214/25 159/211/25
f 162/216/26 163/215/27 159/211/26
f 161/217/28 162/216/29 159/211/30
f 160/218/31 161/217/32 159/211/33
